<?xml version="1.0" encoding="UTF-8"?>
<svg id="Layer_1" xmlns="http://www.w3.org/2000/svg" version="1.1" viewBox="0 0 2189 2133">
  <!-- Generator: Adobe Illustrator 29.3.1, SVG Export Plug-In . SVG Version: 2.1.0 Build 151)  -->
  <defs>
    <style>
      .st0 {
        fill: #cba234;
      }
    </style>
  </defs>
  <path class="st0" d="M1751.88,128.8c13.58-25.05,26.95-50.76,41.95-74.99,9.35-15.09,15.59-30.45,34.69-35.26,31.82-8.01,58.65,21.84,48.58,52.58l-53.98,94.11-.69,4.36,256.61,443.44.7,4.35-281.57,486.28-517.8,1.96c-99.1,169.68-195.6,340.9-295.53,510.1-9.32,15.78-22.88,49.21-37.62,58.34-35.58,22.04-76.83-17.17-57.78-53.78l322.58-556.93-255.49-445.69,1.09-6.66,278.78-480.91,515.46-1.31ZM1698.22,219.08h-408.81c-77.38,131.66-154.36,263.7-228.88,396.97l204.87,354.69,432.82-751.66ZM1334.39,1014.71h410.81c78.92-131.72,154.96-265.29,230.81-398.84l-207.79-356.8-433.83,755.64Z"/>
  <path class="st0" d="M882.19,1552.03l-563.35-.57c-93.95-161.27-188.45-323.25-280.02-485.74l280-487.84,556.87-1.07c3.07-.11,4.92.83,7.01,2.98,5.15,5.31,17.26,29.34,22.22,37.75,87.52,148.34,171.38,298.97,257.45,448.16l-280.19,486.32ZM830.3,1462.17l228.14-396.47-226.06-393.6-6.66-3.34-456.59.44-226.21,394.63,5.65,14.19c68.82,115.7,133.44,233.94,201.9,349.84,3.93,6.65,18.2,33.68,23.32,34.65l456.49-.34Z"/>
  <path class="st0" d="M1306.81,2115.77l-280.19-486.32c86.1-149.18,169.93-299.82,257.45-448.16,4.96-8.41,17.08-32.44,22.22-37.75,2.09-2.16,3.95-3.1,7.01-2.98l556.87,1.07,280,487.84c-91.57,162.49-186.07,324.47-280.02,485.74l-563.35.57ZM1819.85,1232.93l-456.59-.44-6.66,3.34-226.06,393.6,228.14,396.47,456.49.34c5.12-.98,19.39-28,23.32-34.65,68.46-115.9,133.08-234.14,201.9-349.84l5.65-14.19-226.21-394.63Z"/>
  <path class="st0" d="M1861.62,555.4c39.45-6.7,67.8,30.05,49.61,65.6-31.13,60.84-73.17,124.22-107.85,184.02-7.51,12.94-15.33,26.05-22.9,39.07-20.03,34.43-40.73,80.97-63.4,112.52-31.04,43.2-101.77,4.74-75.95-47.96l193.35-334.41c6.6-8.72,15.99-16.95,27.13-18.85Z"/>
  <path class="st0" d="M1349.9,257.59c32.92-4.21,58.37,26.96,48.9,58.89l-199.51,346.24c-36.64,38.38-95.15-.1-75.16-49.17,69.64-114.2,131.53-233.89,203.6-346.15,6.58-4.72,13.98-8.77,22.17-9.81Z"/>
  <path class="st0" d="M946.08,1003.24c36.02-4.95,62.79,30.61,47.95,63.93-64.77,106.58-122.74,217.41-188.19,323.57-6.26,10.15-5.7,16.15-17.37,24.61-38.02,27.54-86.27-13.55-67.27-55.27l193.71-336.04c8.41-10.59,17.14-18.86,31.17-20.79Z"/>
  <path class="st0" d="M426.29,707.33c38.4-6.56,66.98,25.72,52.27,62.27l-196.82,340.93c-34.75,39.23-96.49,2.24-76.61-46.62,54.94-94.92,109.74-189.9,165.39-284.4,12.62-21.44,29.4-67.67,55.77-72.18Z"/>
  <path class="st0" d="M1415.87,1275.11c36.02-4.95,62.79,30.61,47.95,63.93-64.77,106.58-122.74,217.41-188.19,323.57-6.26,10.15-5.7,16.15-17.37,24.61-38.02,27.54-86.27-13.55-67.27-55.27l193.71-336.04c8.41-10.59,17.14-18.86,31.17-20.79Z"/>
  <path class="st0" d="M1927.6,1572.92c38.4-6.56,66.98,25.72,52.27,62.27l-196.82,340.93c-34.75,39.23-96.49,2.24-76.61-46.62,54.94-94.92,109.74-189.9,165.39-284.4,12.62-21.44,29.4-67.67,55.77-72.18Z"/>
</svg>